<svg width="32" height="33" viewBox="0 0 32 33" fill="none" xmlns="http://www.w3.org/2000/svg">
    <path fill-rule="evenodd" clip-rule="evenodd"
          d="M12.2825 28.3498C13.0273 28.7742 13.9407 28.7742 14.6855 28.3498C15.8593 27.6809 16.2608 26.1822 15.5787 25.0161L8.28358 12.5444C7.60726 11.3882 6.12649 10.9915 4.9627 11.6547C4.19952 12.0896 3.72829 12.9005 3.72829 13.7789V17.9166C3.72829 21.3532 5.57186 24.5257 8.55768 26.2272L12.2825 28.3498ZM24.8646 26.7999C24.0365 27.0841 23.0943 26.7579 22.6398 25.9805L11.0252 6.11333C11.0194 6.10342 11.0138 6.09349 11.0082 6.08352C10.5727 5.30627 10.7669 4.34763 11.4324 3.79056C11.5167 3.72004 11.6084 3.65596 11.7075 3.5995L17.5878 0.246688C18.1646 -0.0821898 18.8753 -0.0822321 19.4521 0.246577L31.0679 6.86782C31.6448 7.19662 32.0001 7.80432 32 8.46194L31.9984 21.7081C31.9983 22.3655 31.6431 22.9729 31.0665 23.3016L25.1866 26.6542C25.0822 26.7138 24.9744 26.7622 24.8646 26.7999ZM12.5521 32.7535C13.1288 33.0822 13.8392 33.0822 14.4159 32.7535L20.2966 29.4024C20.3942 29.3468 20.4847 29.2838 20.5679 29.2145C21.237 28.6578 21.4328 27.6963 20.9959 26.9173C20.9903 26.9075 20.9847 26.8977 20.979 26.8879L9.35954 7.02353C8.90589 6.24796 7.9668 5.92169 7.14003 6.20282C7.02862 6.24071 6.91925 6.28962 6.81338 6.34995L0.932269 9.70136C0.35539 10.0301 0 10.6377 0 11.2954V24.5378C0 25.1955 0.35539 25.8031 0.932269 26.1318L12.5521 32.7535ZM28.2709 15.086C28.2713 11.6474 26.4271 8.47283 23.4397 6.76999L19.7226 4.65114C18.9773 4.22631 18.0631 4.22636 17.3178 4.65129C16.1442 5.32049 15.7426 6.81915 16.4245 7.98552L23.7166 20.4589C24.3926 21.6152 25.8734 22.012 27.037 21.3485C27.7995 20.9137 28.2703 20.1035 28.2704 19.2257L28.2709 15.086Z"
          fill="#ED8923"/>
</svg>
