<?xml version="1.0" encoding="UTF-8"?>
<svg xmlns="http://www.w3.org/2000/svg" width="1" height="1">
    <defs>
        <symbol viewBox="0 0 24 24" fill="none" id="ab-test">
            <g id="Group"/>
            <path id="Path" d="M4.98242 7.62326H9.10914" stroke="white" stroke-width="1.5" stroke-linecap="round"
                  stroke-linejoin="round"/>
            <path id="Path_2"
                  d="M2.99613 12C2.98911 14.5642 4.0787 17.0091 5.99024 18.7183C7.90178 20.4275 10.4529 21.2378 13.0003 20.9451"
                  stroke="white" stroke-width="1.5" stroke-linecap="round" stroke-linejoin="round"/>
            <path id="Path_3"
                  d="M11 3.05485C13.5475 2.7621 16.0985 3.57247 18.0101 5.28164C19.9216 6.99081 21.0112 9.43571 21.0042 11.9999"
                  stroke="white" stroke-width="1.5" stroke-linecap="round" stroke-linejoin="round"/>
            <path id="Path_4" d="M7.19057 3.49609L4.24707 8.99839" stroke="white" stroke-width="1.5"
                  stroke-linecap="round"
                  stroke-linejoin="round"/>
            <path id="Path_5" d="M9.74923 8.99839L7.19043 3.49609" stroke="white" stroke-width="1.5"
                  stroke-linecap="round"
                  stroke-linejoin="round"/>
            <path id="Path_6" d="M16.0022 20.0035V14.001" stroke="white" stroke-width="1.5" stroke-linecap="round"
                  stroke-linejoin="round"/>
            <path id="Path_7"
                  d="M16.002 20.003H19.0272C19.8427 20.003 20.5038 19.3419 20.5038 18.5264V18.5264C20.5038 17.7109 19.8427 17.0498 19.0272 17.0498H16.002"
                  stroke="white" stroke-width="1.5" stroke-linecap="round" stroke-linejoin="round"/>
            <path id="Path_8"
                  d="M16.002 14.001H18.6537C19.4958 14.001 20.1784 14.6836 20.1784 15.5256V15.5256C20.1784 16.3676 19.4958 17.0502 18.6537 17.0502H16.002"
                  stroke="white" stroke-width="1.5" stroke-linecap="round" stroke-linejoin="round"/>

        </symbol>
        <symbol viewBox="0 0 24 24" fill="none" id="bell">
            <path d="M21.0038 3.49647L20.0247 4.14921" stroke="white" stroke-width="1.5" stroke-linecap="round"
                  stroke-linejoin="round"/>
            <path d="M22.0042 8.99874H21.0251" stroke="white" stroke-width="1.5" stroke-linecap="round"
                  stroke-linejoin="round"/>
            <path d="M2.99625 3.49647L3.97536 4.14921" stroke="white" stroke-width="1.5" stroke-linecap="round"
                  stroke-linejoin="round"/>
            <path d="M1.99588 8.99874H2.97499" stroke="white" stroke-width="1.5" stroke-linecap="round"
                  stroke-linejoin="round"/>
            <path d="M14.0008 20.0034C13.5285 20.6331 12.7872 21.0038 12 21.0038C11.2128 21.0038 10.4715 20.6331 9.99915 20.0034"
                  stroke="white" stroke-width="1.5" stroke-linecap="round" stroke-linejoin="round"/>
            <path d="M6.37268 13.0529V9.62399C6.37268 6.51609 8.89212 3.99664 12 3.99664V3.99664C15.1079 3.99664 17.6274 6.51609 17.6274 9.62399V13.0529H17.6231L18.9136 14.3444C19.4856 14.9168 19.6565 15.7774 19.3466 16.5249C19.0367 17.2724 18.3071 17.7596 17.4979 17.7595H6.5021C5.69292 17.7596 4.96331 17.2724 4.65343 16.5249C4.34356 15.7774 4.51443 14.9168 5.08639 14.3444L6.37693 13.0529"
                  stroke="white" stroke-width="1.5" stroke-linecap="round" stroke-linejoin="round"/>
        </symbol>
        <symbol viewBox="0 0 24 24" fill="none" id="crypto-currency">
            <path d="M5.99754 8.99899H3.9967" stroke="white" stroke-width="1.5" stroke-linecap="round"
                  stroke-linejoin="round"/>
            <path d="M5.99754 15.0014H3.9967" stroke="white" stroke-width="1.5" stroke-linecap="round"
                  stroke-linejoin="round"/>
            <path d="M3.99668 12.0002H1.99585" stroke="white" stroke-width="1.5" stroke-linecap="round"
                  stroke-linejoin="round"/>
            <path d="M5.66113 5.6335C8.23619 3.05844 12.1089 2.28812 15.4733 3.68173C18.8378 5.07534 21.0315 8.35843 21.0315 12.0001C21.0315 15.6418 18.8378 18.9249 15.4733 20.3185C12.1089 21.7121 8.23619 20.9418 5.66113 18.3667"
                  stroke="white" stroke-width="1.5" stroke-linecap="round" stroke-linejoin="round"/>
            <path fill-rule="evenodd" clip-rule="evenodd"
                  d="M13.0606 8.43793L15.562 10.9386C15.8434 11.22 16.0016 11.6016 16.0016 11.9996C16.0016 12.3976 15.8436 12.7794 15.5623 13.0608L13.0616 15.5622C12.7802 15.8437 12.3985 16.0019 12.0005 16.0019C11.6025 16.0019 11.2208 15.8439 10.9393 15.5625L8.43798 13.0618C8.15651 12.7805 7.99829 12.3988 7.99829 12.0008C7.99829 11.6028 8.15629 11.2211 8.43768 10.9396L10.9383 8.43823C11.2197 8.15675 11.6014 7.99854 11.9994 7.99854C12.3974 7.99854 12.7791 8.15653 13.0606 8.43793V8.43793Z"
                  stroke="white" stroke-width="1.5" stroke-linecap="round" stroke-linejoin="round"/>
        </symbol>
        <symbol viewBox="0 0 24 25" fill="none" id="discord">
            <path d="M20.3303 4.72781C18.7767 4.00093 17.1156 3.47267 15.3789 3.17188C15.1656 3.55749 14.9164 4.07614 14.7446 4.48873C12.8985 4.21109 11.0693 4.21109 9.25716 4.48873C9.08539 4.07614 8.83055 3.55749 8.61536 3.17188C6.87681 3.47267 5.21376 4.00287 3.66019 4.73166C0.526643 9.46686 -0.322811 14.0845 0.101917 18.6365C2.18025 20.1885 4.19441 21.1313 6.17457 21.7483C6.66349 21.0754 7.09953 20.3601 7.47518 19.6063C6.75975 19.3344 6.07453 18.999 5.42707 18.6095C5.59884 18.4822 5.76686 18.3492 5.92918 18.2123C9.87819 20.0594 14.1689 20.0594 18.0707 18.2123C18.235 18.3492 18.403 18.4822 18.5728 18.6095C17.9235 19.0009 17.2364 19.3363 16.521 19.6082C16.8966 20.3601 17.3308 21.0774 17.8216 21.7502C19.8036 21.1333 21.8197 20.1905 23.898 18.6365C24.3964 13.3595 23.0467 8.78434 20.3303 4.72781ZM8.01318 15.837C6.82772 15.837 5.85555 14.7303 5.85555 13.3826C5.85555 12.035 6.80696 10.9264 8.01318 10.9264C9.21942 10.9264 10.1916 12.033 10.1708 13.3826C10.1727 14.7303 9.21942 15.837 8.01318 15.837ZM15.9867 15.837C14.8013 15.837 13.8291 14.7303 13.8291 13.3826C13.8291 12.035 14.7805 10.9264 15.9867 10.9264C17.193 10.9264 18.1651 12.033 18.1444 13.3826C18.1444 14.7303 17.193 15.837 15.9867 15.837Z"
                  fill="white"/>
        </symbol>
        <symbol viewBox="0 0 24 24" fill="none" id="email">
            <path d="M7.49817 9.74908L10.4249 11.5535C11.3906 12.1489 12.6095 12.1489 13.5752 11.5535L16.5019 9.74908"
                  stroke="white" stroke-width="1.5" stroke-linecap="round" stroke-linejoin="round"/>
            <rect x="2.99622" y="4.99707" width="18.0075" height="14.0058" rx="3" stroke="white" stroke-width="1.5"
                  stroke-linecap="round" stroke-linejoin="round"/>
        </symbol>
        <symbol viewBox="0 0 25 24" fill="none" id="form">
            <path d="M9.49872 21.0038H6.49747C4.83992 21.0038 3.49622 19.6601 3.49622 18.0026V5.99759C3.49622 4.34004 4.83992 2.99634 6.49747 2.99634H18.5025C20.16 2.99634 21.5037 4.34004 21.5037 5.99759V8.99884"
                  stroke="currentColor" stroke-width="1.5" stroke-linecap="round" stroke-linejoin="round"/>
            <path fill-rule="evenodd" clip-rule="evenodd"
                  d="M15.2231 20.7108C15.0356 20.8984 14.7811 21.0039 14.5158 21.0039H12.5V18.9881C12.5 18.7228 12.6055 18.4684 12.7931 18.2808L18.7196 12.3493C19.0425 12.0264 19.4804 11.845 19.9371 11.845C20.3938 11.845 20.8317 12.0264 21.1546 12.3493V12.3493C21.4778 12.6721 21.6594 13.1101 21.6594 13.5668C21.6594 14.0236 21.4778 14.4616 21.1546 14.7843L15.2231 20.7108Z"
                  stroke="currentColor" stroke-width="1.5" stroke-linecap="round" stroke-linejoin="round"/>
            <path d="M16.5127 14.5632L18.9437 16.9942" stroke="currentColor" stroke-width="1.5" stroke-linecap="round"
                  stroke-linejoin="round"/>
            <path d="M20.6684 15.2695L21.5688 16.1699V16.1699C22.0428 16.6448 22.0428 17.4137 21.5688 17.8886L20.4794 18.9791"
                  stroke="currentColor" stroke-width="1.5" stroke-linecap="round" stroke-linejoin="round"/>
            <path d="M9.7489 10.9997H14.5009" stroke="currentColor" stroke-width="1.5" stroke-linecap="round"
                  stroke-linejoin="round"/>
            <path d="M9.7489 7.12301H16.5017" stroke="currentColor" stroke-width="1.5" stroke-linecap="round"
                  stroke-linejoin="round"/>
            <path d="M6.62252 11.1248C6.69159 11.1248 6.74757 11.0688 6.74757 10.9997C6.74757 10.9307 6.69159 10.8747 6.62252 10.8747C6.55346 10.8747 6.49747 10.9307 6.49747 10.9997C6.49747 11.0688 6.55346 11.1248 6.62252 11.1248"
                  stroke="currentColor" stroke-width="1.5" stroke-linecap="round" stroke-linejoin="round"/>
            <path d="M6.62252 7.24806C6.69159 7.24806 6.74757 7.19208 6.74757 7.12301C6.74757 7.05395 6.69159 6.99796 6.62252 6.99796C6.55346 6.99796 6.49747 7.05395 6.49747 7.12301C6.49747 7.19208 6.55346 7.24806 6.62252 7.24806"
                  stroke="currentColor" stroke-width="1.5" stroke-linecap="round" stroke-linejoin="round"/>
            <path d="M9.7489 14.8764H11.4996" stroke="currentColor" stroke-width="1.5" stroke-linecap="round"
                  stroke-linejoin="round"/>
            <path d="M6.62252 15.0015C6.69159 15.0015 6.74757 14.9455 6.74757 14.8764C6.74757 14.8074 6.69159 14.7514 6.62252 14.7514C6.55346 14.7514 6.49747 14.8074 6.49747 14.8764C6.49747 14.9455 6.55346 15.0015 6.62252 15.0015"
                  stroke="currentColor" stroke-width="1.5" stroke-linecap="round" stroke-linejoin="round"/>
        </symbol>
        <symbol viewBox="0 0 25 24" fill="none" id="github">
            <path fill-rule="evenodd" clip-rule="evenodd"
                  d="M5.9 5.9C4.5 7.4 3.5 9.5 3.5 12.2C3.5 14.2 4.2 16.1 5.3 17.6C6.6 19.3 8.5 20.3 9.5 20.7V20C9.5 20 9.5 18.4 10.4 17C8.4 16.9 6.8 15 6.8 12.8C6.8 12 7.1 11.3 7.6 10.7L7.7 8.8C7.7 8.3 8.2 8 8.7 8.1L10.8 8.9C11.4 8.8 12 8.7 12.7 8.7C13.4 8.7 14 8.8 14.6 8.9L16.4 8C16.9 7.8 17.4 8.2 17.4 8.7L17.5 10.6C18 11.2 18.3 12 18.3 12.7C18.3 14.9 16.7 16.7 14.7 16.9C15.6 18.3 15.6 19.9 15.6 19.9V20.6C16.6 20.2 18.5 19.2 19.8 17.5C20.9 16.1 21.6 14.1 21.6 12.1C21.6 9.4 20.6 7.3 19.2 5.8C17.3 3.9 14.7 3 12.5 3C10.3 3 7.7 3.9 5.9 5.9V5.9Z"
                  stroke="currentColor" stroke-width="1.5" stroke-linecap="round" stroke-linejoin="round"/>
        </symbol>
        <symbol viewBox="0 0 24 25" fill="none" id="grid">
            <path d="M20.9787 12.51H2.99719" stroke="white" stroke-width="1.5" stroke-linecap="round"
                  stroke-linejoin="round"/>
            <path d="M13.7848 12.4969V21.5027" stroke="white" stroke-width="1.5" stroke-linecap="round"
                  stroke-linejoin="round"/>
            <path d="M9.27792 12.513V3.51123" stroke="white" stroke-width="1.5" stroke-linecap="round"
                  stroke-linejoin="round"/>
            <rect x="2.99622" y="3.49622" width="18.0075" height="18.0075" rx="2" stroke="white" stroke-width="1.5"
                  stroke-linecap="round" stroke-linejoin="round"/>
        </symbol>
        <symbol viewBox="0 0 70 79" fill="none" id="hexagon-arrow-left">
            <path d="M31.3814 0.895323C33.4489 -0.298441 35.9962 -0.298441 38.0637 0.895324L66.1039 17.0854C68.1714 18.2791 69.4451 20.4853 69.4451 22.8728V55.2529C69.4451 57.6404 68.1714 59.8466 66.1039 61.0404L38.0637 77.2304C35.9962 78.4242 33.4489 78.4242 31.3814 77.2304L3.34118 61.0404C1.27365 59.8466 0 57.6404 0 55.2529L0 22.8728C0 20.4853 1.27365 18.2791 3.34118 17.0854L31.3814 0.895323Z"
                  fill="currentColor"/>
            <path d="M38.0554 44.2098L31.722 37.8765L38.0554 31.5431" stroke="white" stroke-width="4.5"
                  stroke-linecap="round"
                  stroke-linejoin="round"/>
        </symbol>
        <symbol viewBox="0 0 70 79" fill="none" id="hexagon-arrow-right">
            <path d="M31.3814 0.895323C33.4489 -0.298441 35.9962 -0.298441 38.0637 0.895324L66.1039 17.0854C68.1714 18.2791 69.4451 20.4853 69.4451 22.8728V55.2529C69.4451 57.6404 68.1714 59.8466 66.1039 61.0404L38.0637 77.2304C35.9962 78.4242 33.4489 78.4242 31.3814 77.2304L3.34118 61.0404C1.27365 59.8466 0 57.6404 0 55.2529L0 22.8728C0 20.4853 1.27365 18.2791 3.34118 17.0854L31.3814 0.895323Z"
                  fill="currentColor"/>
            <path d="M31.722 44.2098L38.0554 37.8765L31.722 31.5431" stroke="white" stroke-width="4.5"
                  stroke-linecap="round"
                  stroke-linejoin="round"/>
        </symbol>
        <symbol viewBox="0 0 22 24" fill="none" id="hexagon-borders">
            <path
                    d="M10.25 1.01036C10.7141 0.742414 11.2859 0.742414 11.75 1.01036L20.1423 5.85566C20.6064 6.12361 20.8923 6.6188 20.8923 7.1547V16.8453C20.8923 17.3812 20.6064 17.8764 20.1423 18.1443L11.75 22.9896C11.2859 23.2576 10.7141 23.2576 10.25 22.9896L1.8577 18.1443C1.39359 17.8764 1.1077 17.3812 1.1077 16.8453V7.1547C1.1077 6.6188 1.39359 6.12361 1.8577 5.85566L10.25 1.01036Z"
                    stroke="currentColor"/>
        </symbol>
        <symbol viewBox="0 0 22 24" fill="none" id="hexagon">
            <path
                    d="M10 0.57735C10.6188 0.220084 11.3812 0.220085 12 0.57735L20.3923 5.42265C21.0111 5.77992 21.3923 6.44017 21.3923 7.1547V16.8453C21.3923 17.5598 21.0111 18.2201 20.3923 18.5774L12 23.4226C11.3812 23.7799 10.6188 23.7799 10 23.4226L1.6077 18.5774C0.988893 18.2201 0.607696 17.5598 0.607696 16.8453V7.1547C0.607696 6.44017 0.988893 5.77992 1.6077 5.42265L10 0.57735Z"
                    fill="currentColor"/>
        </symbol>
        <symbol viewBox="0 0 25 25" fill="none" id="lasso">
            <path d="M17.8099 4.07613C22.1713 5.59765 23.2546 9.66099 20.2296 13.1518C17.2045 16.6427 11.2165 18.2392 6.85513 16.7176C2.4937 15.1961 1.41037 11.1328 4.43544 7.64191C7.46051 4.15106 13.4485 2.55459 17.8099 4.07613"
                  stroke="white" stroke-width="1.49993" stroke-linecap="round" stroke-linejoin="round"/>
            <path d="M14.0443 16.815C9.87725 17.926 4.63525 16.903 4.63525 13.456" stroke="white" stroke-width="1.5"
                  stroke-linecap="round" stroke-linejoin="round"/>
            <path d="M10.3813 14.605C10.3813 16.823 9.23225 20.351 4.63525 21.5" stroke="white" stroke-width="1.5"
                  stroke-linecap="round" stroke-linejoin="round"/>
            <path d="M4.63525 13.456C4.63525 10.009 10.3813 10.009 10.3813 14.605" stroke="white" stroke-width="1.5"
                  stroke-linecap="round" stroke-linejoin="round"/>
        </symbol>
        <symbol viewBox="0 0 32 33" fill="none" id="logo">
            <path fill-rule="evenodd" clip-rule="evenodd"
                  d="M12.2825 28.3498C13.0273 28.7742 13.9407 28.7742 14.6855 28.3498C15.8593 27.6809 16.2608 26.1822 15.5787 25.0161L8.28358 12.5444C7.60726 11.3882 6.12649 10.9915 4.9627 11.6547C4.19952 12.0896 3.72829 12.9005 3.72829 13.7789V17.9166C3.72829 21.3532 5.57186 24.5257 8.55768 26.2272L12.2825 28.3498ZM24.8646 26.7999C24.0365 27.0841 23.0943 26.7579 22.6398 25.9805L11.0252 6.11333C11.0194 6.10342 11.0138 6.09349 11.0082 6.08352C10.5727 5.30627 10.7669 4.34763 11.4324 3.79056C11.5167 3.72004 11.6084 3.65596 11.7075 3.5995L17.5878 0.246688C18.1646 -0.0821898 18.8753 -0.0822321 19.4521 0.246577L31.0679 6.86782C31.6448 7.19662 32.0001 7.80432 32 8.46194L31.9984 21.7081C31.9983 22.3655 31.6431 22.9729 31.0665 23.3016L25.1866 26.6542C25.0822 26.7138 24.9744 26.7622 24.8646 26.7999ZM12.5521 32.7535C13.1288 33.0822 13.8392 33.0822 14.4159 32.7535L20.2966 29.4024C20.3942 29.3468 20.4847 29.2838 20.5679 29.2145C21.237 28.6578 21.4328 27.6963 20.9959 26.9173C20.9903 26.9075 20.9847 26.8977 20.979 26.8879L9.35954 7.02353C8.90589 6.24796 7.9668 5.92169 7.14003 6.20282C7.02862 6.24071 6.91925 6.28962 6.81338 6.34995L0.932269 9.70136C0.35539 10.0301 0 10.6377 0 11.2954V24.5378C0 25.1955 0.35539 25.8031 0.932269 26.1318L12.5521 32.7535ZM28.2709 15.086C28.2713 11.6474 26.4271 8.47283 23.4397 6.76999L19.7226 4.65114C18.9773 4.22631 18.0631 4.22636 17.3178 4.65129C16.1442 5.32049 15.7426 6.81915 16.4245 7.98552L23.7166 20.4589C24.3926 21.6152 25.8734 22.012 27.037 21.3485C27.7995 20.9137 28.2703 20.1035 28.2704 19.2257L28.2709 15.086Z"
                  fill="#ED8923"/>
        </symbol>
        <symbol viewBox="0 0 25 24" fill="none" id="medium">
            <path d="M5.57996 15.4801V7.46008" stroke="currentColor" stroke-width="1.5" stroke-linecap="round"
                  stroke-linejoin="round"/>
            <path d="M15.962 5.79504V16.404L14.808 18.712V19H21.731V18.711L20 16.404V6.70904L21.719 5.12104H21.725V3.96704H21.731H16.51L12 19H11.058L6.27498 8.37204C6.15998 8.11704 5.99998 7.88504 5.80198 7.68704L3.26898 5.15404V4.00004H9.02798L13.493 14.023"
                  stroke="currentColor" stroke-width="1.5" stroke-linecap="round" stroke-linejoin="round"/>
            <path fill-rule="evenodd" clip-rule="evenodd"
                  d="M3.26898 18.711V19H7.88498V18.711L5.57698 15.483L3.26898 18.711Z"
                  stroke="currentColor" stroke-width="1.5" stroke-linecap="round" stroke-linejoin="round"/>
        </symbol>
        <symbol viewBox="0 0 24 24" fill="none" id="menu">
            <path d="M5.4978 12.0002H18.5029" stroke="white" stroke-width="1.5" stroke-linecap="round"
                  stroke-linejoin="round"/>
            <path d="M5.4978 16.0017H18.5029" stroke="white" stroke-width="1.5" stroke-linecap="round"
                  stroke-linejoin="round"/>
            <path d="M5.49731 7.9985H18.5024" stroke="white" stroke-width="1.5" stroke-linecap="round"
                  stroke-linejoin="round"/>
        </symbol>
        <symbol viewBox="0 0 24 24" fill="none" id="mobile-camera">
            <g id="Group"/>
            <path id="Path" d="M10.0381 21.0041V12.0223C10.0381 10.9173 10.9339 10.0215 12.0389 10.0215H21.0037"
                  stroke="white" stroke-width="1.5" stroke-linecap="round" stroke-linejoin="round"/>
            <path id="Path_2" fill-rule="evenodd" clip-rule="evenodd"
                  d="M12.079 10.0215H14.8541C15.1586 10.0215 15.4506 10.1425 15.6659 10.3579C15.8811 10.5733 16.0019 10.8655 16.0016 11.17V13.8111C16.0016 14.4448 15.4878 14.9585 14.8541 14.9585H11.2256C10.5919 14.9585 10.0781 14.4448 10.0781 13.8111V12.0223C10.0781 10.9173 10.9739 10.0215 12.079 10.0215Z"
                  stroke="white" stroke-width="1.5" stroke-linecap="round" stroke-linejoin="round"/>
            <rect id="Rectangle" x="2.99609" y="2.99609" width="18.0075" height="18.0075" rx="5" stroke="white"
                  stroke-width="1.5" stroke-linecap="round" stroke-linejoin="round"/>
            <path id="Path_3" d="M10.4992 6.49805V7.49846" stroke="white" stroke-width="1.5" stroke-linecap="round"
                  stroke-linejoin="round"/>
            <path id="Path_4" d="M6.49805 10.4992H7.49846" stroke="white" stroke-width="1.5" stroke-linecap="round"
                  stroke-linejoin="round"/>
            <path id="Path_5" d="M7.49812 7.49812L8.20542 8.20542" stroke="white" stroke-width="1.5"
                  stroke-linecap="round"
                  stroke-linejoin="round"/>

        </symbol>
        <symbol viewBox="0 0 24 25" fill="none" id="mouse-select">
            <path d="M6.99792 7.49789H12" stroke="white" stroke-width="1.5" stroke-linecap="round"
                  stroke-linejoin="round"/>
            <path d="M6.99792 10.4991H9.99917" stroke="white" stroke-width="1.5" stroke-linecap="round"
                  stroke-linejoin="round"/>
            <path d="M6.99792 13.5005H7.99834" stroke="white" stroke-width="1.5" stroke-linecap="round"
                  stroke-linejoin="round"/>
            <path d="M21.0037 11.4995V5.49705C21.0037 4.39202 20.1079 3.49622 19.0029 3.49622H4.99705C3.89202 3.49622 2.99622 4.39202 2.99622 5.49705V16.5016C2.99622 17.6067 3.89202 18.5025 4.99705 18.5025H6.99788"
                  stroke="white" stroke-width="1.5" stroke-linecap="round" stroke-linejoin="round"/>
            <path fill-rule="evenodd" clip-rule="evenodd"
                  d="M18.5586 21.5038H13.9589C13.2898 21.5038 12.6651 21.1694 12.294 20.6127L10.2605 17.5621C9.80283 16.8757 9.9608 15.9514 10.6204 15.456C11.2826 15.0004 12.1778 15.0944 12.7309 15.6777L13.5549 16.5017V10.9994C13.5549 10.1706 14.2267 9.49878 15.0555 9.49878C15.8843 9.49878 16.5561 10.1706 16.5561 10.9994V13.5224L19.3249 13.9739C20.3868 14.1471 21.1216 15.1291 20.9882 16.1968L20.544 19.751C20.4189 20.7523 19.5677 21.5038 18.5586 21.5038Z"
                  stroke="white" stroke-width="1.5" stroke-linecap="round" stroke-linejoin="round"/>
        </symbol>
        <symbol viewBox="0 0 25 24" fill="none" id="node-link">
            <g id="Group"/>
            <g id="Group_2"/>
            <path id="Path"
                  d="M13.9875 10.3448C14.9018 11.2591 14.9018 12.7413 13.9875 13.6555C13.0733 14.5697 11.5911 14.5697 10.6769 13.6555C9.76266 12.7413 9.76266 11.2591 10.6769 10.3448C11.5911 9.43063 13.0733 9.43063 13.9875 10.3448"
                  stroke="white" stroke-width="1.5" stroke-linecap="round" stroke-linejoin="round"/>
            <path id="Path_2"
                  d="M21.7814 10.5097C22.6043 11.3325 22.6043 12.6666 21.7814 13.4895C20.9586 14.3123 19.6245 14.3123 18.8017 13.4895C17.9789 12.6666 17.9789 11.3325 18.8017 10.5097C19.6245 9.68687 20.9586 9.68687 21.7814 10.5097"
                  stroke="white" stroke-width="1.5" stroke-linecap="round" stroke-linejoin="round"/>
            <path id="Path_3"
                  d="M5.86348 10.5097C6.68631 11.3325 6.68631 12.6666 5.86348 13.4895C5.04064 14.3123 3.70657 14.3123 2.88373 13.4895C2.06089 12.6666 2.06089 11.3325 2.88373 10.5097C3.70656 9.68687 5.04064 9.68687 5.86348 10.5097"
                  stroke="white" stroke-width="1.5" stroke-linecap="round" stroke-linejoin="round"/>
            <path id="Path_4"
                  d="M17.802 3.61713C18.6248 4.43996 18.6248 5.77404 17.802 6.59688C16.9791 7.41971 15.645 7.41971 14.8222 6.59688C13.9994 5.77404 13.9994 4.43997 14.8222 3.61713C15.645 2.79429 16.9791 2.79429 17.802 3.61713"
                  stroke="white" stroke-width="1.5" stroke-linecap="round" stroke-linejoin="round"/>
            <path id="Path_5"
                  d="M9.84395 17.4033C10.6668 18.2261 10.6668 19.5602 9.84395 20.383C9.02111 21.2058 7.68704 21.2058 6.8642 20.383C6.04136 19.5602 6.04136 18.2261 6.8642 17.4033C7.68703 16.5804 9.02111 16.5804 9.84395 17.4033"
                  stroke="white" stroke-width="1.5" stroke-linecap="round" stroke-linejoin="round"/>
            <path id="Path_6"
                  d="M9.84395 3.61713C10.6668 4.43996 10.6668 5.77404 9.84395 6.59688C9.02111 7.41971 7.68704 7.41971 6.8642 6.59688C6.04136 5.77404 6.04136 4.43997 6.8642 3.61713C7.68703 2.79429 9.02111 2.79429 9.84395 3.61713"
                  stroke="white" stroke-width="1.5" stroke-linecap="round" stroke-linejoin="round"/>
            <path id="Path_7"
                  d="M17.802 17.4033C18.6248 18.2261 18.6248 19.5602 17.802 20.383C16.9791 21.2058 15.645 21.2058 14.8222 20.383C13.9994 19.5602 13.9994 18.2261 14.8222 17.4033C15.645 16.5804 16.9791 16.5804 17.802 17.4033"
                  stroke="white" stroke-width="1.5" stroke-linecap="round" stroke-linejoin="round"/>
            <path id="Path_8" d="M9.40234 17.0695L11.1623 14.0195" stroke="white" stroke-width="1.5"
                  stroke-linecap="round" stroke-linejoin="round"/>
            <path id="Path_9" d="M9.40234 6.92969L11.1623 9.97969" stroke="white" stroke-width="1.5"
                  stroke-linecap="round" stroke-linejoin="round"/>
            <path id="Path_10" d="M18.1829 12H14.6729" stroke="white" stroke-width="1.5" stroke-linecap="round"
                  stroke-linejoin="round"/>


        </symbol>
        <symbol viewBox="0 0 25 25" fill="none" id="paper">
            <path d="M9.66553 8.51602H15.668" stroke="white" stroke-width="1.5" stroke-linecap="round"
                  stroke-linejoin="round"/>
            <path d="M9.66553 12.5H12.6668" stroke="white" stroke-width="1.5" stroke-linecap="round"
                  stroke-linejoin="round"/>
            <path d="M5.16357 4.49667H16.6684C17.7734 4.49667 18.6692 5.39248 18.6692 6.49751V16.5017" stroke="white"
                  stroke-width="1.5" stroke-linecap="round" stroke-linejoin="round"/>
            <path d="M8.16484 20.5033H19.6696C20.7747 20.5033 21.6705 19.6075 21.6705 18.5025V17.5021C21.6705 16.9496 21.2226 16.5017 20.67 16.5017H10.6659C10.1134 16.5017 9.66546 16.9496 9.66546 17.5021V19.0027C9.66546 19.8315 8.99361 20.5033 8.16484 20.5033V20.5033C7.33607 20.5033 6.66421 19.8315 6.66421 19.0027V5.9973C6.66421 5.16853 5.99236 4.49667 5.16359 4.49667V4.49667C4.33482 4.49667 3.66296 5.16853 3.66296 5.9973V8.49834C3.66296 9.05085 4.11087 9.49876 4.66338 9.49876H6.66421"
                  stroke="white" stroke-width="1.5" stroke-linecap="round" stroke-linejoin="round"/>
        </symbol>
        <symbol viewBox="0 0 24 24" fill="none" id="protocol">
            <path d="M12 4.74997C11.9 4.74997 11.8 4.73997 11.71 4.71997C11.61 4.69997 11.52 4.66997 11.43 4.63997C11.34 4.59997 11.25 4.54997 11.17 4.49997C11.09 4.43997 11.01 4.37997 10.94 4.30997C10.66 4.02997 10.5 3.64997 10.5 3.24997C10.5 2.84997 10.66 2.46997 10.94 2.18997C11.01 2.11997 11.09 2.05997 11.17 1.99997C11.25 1.94997 11.34 1.89997 11.43 1.86997C11.52 1.82997 11.61 1.79997 11.71 1.77997C12.19 1.67997 12.71 1.83997 13.06 2.18997C13.34 2.46997 13.5 2.84997 13.5 3.24997C13.5 3.64997 13.34 4.02997 13.06 4.30997C12.78 4.58997 12.39 4.74997 12 4.74997Z"
                  fill="white"/>
            <path d="M12 9.25C11.9 9.25 11.8 9.24 11.71 9.22C11.61 9.2 11.52 9.17 11.43 9.14C11.34 9.1 11.25 9.05 11.17 9C11.09 8.94 11.01 8.88 10.94 8.81C10.66 8.53 10.5 8.15 10.5 7.75C10.5 7.35 10.66 6.97 10.94 6.69C11.01 6.62 11.09 6.56 11.17 6.5C11.25 6.45 11.34 6.4 11.43 6.37C11.52 6.33 11.61 6.3 11.71 6.28C11.9 6.24 12.1 6.24 12.29 6.28C12.39 6.3 12.48 6.33 12.57 6.37C12.66 6.4 12.75 6.45 12.83 6.5C12.91 6.56 12.99 6.62 13.06 6.69C13.34 6.97 13.5 7.35 13.5 7.75C13.5 8.15 13.34 8.53 13.06 8.81C12.99 8.88 12.91 8.94 12.83 9C12.75 9.05 12.66 9.1 12.57 9.14C12.48 9.17 12.39 9.2 12.29 9.22C12.2 9.24 12.1 9.25 12 9.25Z"
                  fill="white"/>
            <path d="M12 13.25C11.9 13.25 11.8 13.24 11.71 13.22C11.61 13.2 11.52 13.17 11.43 13.14C11.34 13.1 11.25 13.05 11.17 13C11.09 12.94 11.01 12.88 10.94 12.81C10.87 12.74 10.81 12.67 10.75 12.58C10.7 12.5 10.65 12.41 10.61 12.32C10.58 12.23 10.55 12.14 10.53 12.04C10.51 11.95 10.5 11.85 10.5 11.75C10.5 11.35 10.66 10.97 10.94 10.69C11.01 10.62 11.09 10.56 11.17 10.5C11.25 10.45 11.34 10.4 11.43 10.36C11.52 10.33 11.61 10.3 11.71 10.28C12.19 10.18 12.71 10.34 13.06 10.69C13.34 10.97 13.5 11.35 13.5 11.75C13.5 11.85 13.49 11.95 13.47 12.04C13.45 12.14 13.42 12.23 13.38 12.32C13.35 12.41 13.3 12.5 13.25 12.58C13.19 12.67 13.13 12.74 13.06 12.81C12.99 12.88 12.91 12.94 12.83 13C12.75 13.05 12.66 13.1 12.57 13.14C12.48 13.17 12.39 13.2 12.29 13.22C12.2 13.24 12.1 13.25 12 13.25Z"
                  fill="white"/>
            <g opacity="0.6"/>
            <path opacity="0.6"
                  d="M12 16.75C11.74 16.75 11.48 16.64 11.29 16.46C11.11 16.27 11 16.01 11 15.75C11 15.49 11.11 15.23 11.29 15.04C11.52 14.81 11.87 14.71 12.19 14.77C12.26 14.78 12.32 14.8 12.38 14.83C12.44 14.85 12.5 14.88 12.55 14.92C12.61 14.96 12.66 15 12.71 15.04C12.89 15.23 13 15.49 13 15.75C13 16.01 12.89 16.27 12.71 16.46C12.66 16.5 12.61 16.54 12.55 16.58C12.5 16.62 12.44 16.65 12.38 16.67C12.32 16.7 12.26 16.72 12.19 16.73C12.13 16.74 12.06 16.75 12 16.75Z"
                  fill="white"/>

            <g opacity="0.4"/>
            <path opacity="0.4"
                  d="M12 20C11.9 20 11.8 19.98 11.71 19.94C11.62 19.9 11.54 19.85 11.47 19.78C11.4 19.71 11.34 19.63 11.31 19.54C11.27 19.45 11.25 19.35 11.25 19.25C11.25 19.05 11.33 18.86 11.47 18.72C11.54 18.65 11.62 18.6 11.71 18.56C11.9 18.48 12.1 18.48 12.29 18.56C12.38 18.6 12.46 18.65 12.53 18.72C12.6 18.79 12.65 18.87 12.69 18.96C12.73 19.05 12.75 19.15 12.75 19.25C12.75 19.35 12.73 19.45 12.69 19.54C12.65 19.63 12.6 19.71 12.53 19.78C12.46 19.85 12.38 19.9 12.29 19.94C12.19 19.98 12.1 20 12 20Z"
                  fill="white"/>

            <g opacity="0.2"/>
            <path opacity="0.2"
                  d="M12 22.07C11.87 22.07 11.74 22.02 11.65 21.92C11.55 21.83 11.5 21.7 11.5 21.57C11.5 21.44 11.55 21.31 11.65 21.22C11.83 21.03 12.17 21.03 12.35 21.22C12.45 21.31 12.5 21.44 12.5 21.57C12.5 21.7 12.45 21.83 12.35 21.92C12.26 22.02 12.13 22.07 12 22.07Z"
                  fill="white"/>

            <path d="M3.5 9.25002C3.1 9.25002 2.72 9.09002 2.44 8.81002C2.16 8.53002 2 8.15002 2 7.75002C2 7.36002 2.16 6.97002 2.44 6.69002C2.99 6.13002 4 6.13002 4.56 6.69002C4.84 6.97002 5 7.36002 5 7.75002C5 8.15002 4.84 8.53002 4.56 8.81002C4.49 8.88002 4.41002 8.94002 4.33002 9.00002C4.25002 9.05002 4.16001 9.10002 4.07001 9.13002C3.98001 9.17002 3.88998 9.20002 3.78998 9.22002C3.69998 9.24002 3.6 9.25002 3.5 9.25002Z"
                  fill="white"/>
            <path d="M20.5 9.25C20.11 9.25 19.72 9.09 19.44 8.81C19.16 8.53 19 8.14 19 7.75C19 7.65 19.01 7.55 19.03 7.46C19.05 7.36 19.08 7.27 19.11 7.18C19.15 7.09 19.2 7 19.25 6.92C19.31 6.84 19.37 6.76 19.44 6.69C19.51 6.62 19.59 6.56 19.67 6.5C19.75 6.45 19.84 6.4 19.93 6.37C20.02 6.33 20.11 6.3 20.21 6.28C20.4 6.24 20.6 6.24 20.79 6.28C20.89 6.3 20.98 6.33 21.07 6.37C21.16 6.4 21.25 6.45 21.33 6.5C21.41 6.56 21.49 6.62 21.56 6.69C21.63 6.76 21.69 6.84 21.75 6.92C21.8 7 21.85 7.09 21.88 7.18C21.92 7.27 21.95 7.36 21.97 7.46C21.99 7.55 22 7.65 22 7.75C22 8.15 21.84 8.53 21.56 8.81C21.49 8.88 21.41 8.94 21.33 9C21.25 9.05 21.16 9.1 21.07 9.14C20.98 9.17 20.89 9.2 20.79 9.22C20.69 9.24 20.6 9.25 20.5 9.25Z"
                  fill="white"/>
            <g opacity="0.6"/>
            <path opacity="0.6"
                  d="M20.5 12.75C20.44 12.75 20.37 12.74 20.31 12.73C20.24 12.72 20.18 12.7 20.12 12.67C20.06 12.65 20 12.62 19.94 12.58C19.89 12.55 19.84 12.5 19.79 12.46C19.75 12.41 19.7 12.36 19.67 12.31C19.63 12.25 19.6 12.19 19.58 12.13C19.55 12.07 19.53 12.01 19.52 11.95C19.51 11.88 19.5 11.82 19.5 11.75C19.5 11.49 19.61 11.23 19.79 11.04C19.84 11 19.89 10.96 19.94 10.92C20 10.88 20.06 10.85 20.12 10.83C20.18 10.8 20.24 10.78 20.31 10.77C20.43 10.74 20.56 10.74 20.69 10.77C20.76 10.78 20.82 10.8 20.88 10.83C20.94 10.85 21 10.88 21.05 10.92C21.11 10.96 21.16 11 21.21 11.04C21.39 11.23 21.5 11.49 21.5 11.75C21.5 11.82 21.49 11.88 21.48 11.95C21.47 12.01 21.45 12.07 21.42 12.13C21.4 12.19 21.37 12.25 21.33 12.31C21.29 12.36 21.25 12.41 21.21 12.46C21.16 12.5 21.11 12.55 21.05 12.58C21 12.62 20.94 12.65 20.88 12.67C20.82 12.7 20.76 12.72 20.69 12.73C20.63 12.74 20.56 12.75 20.5 12.75Z"
                  fill="white"/>

            <g opacity="0.6"/>
            <path opacity="0.6"
                  d="M3.5 12.75C3.24 12.75 2.97998 12.64 2.78998 12.46C2.60998 12.27 2.5 12.01 2.5 11.75C2.5 11.49 2.60998 11.23 2.78998 11.04C3.06998 10.76 3.51 10.67 3.88 10.83C4.01 10.88 4.11002 10.95 4.21002 11.04C4.39002 11.23 4.5 11.49 4.5 11.75C4.5 12.01 4.39002 12.27 4.21002 12.46C4.02002 12.64 3.76 12.75 3.5 12.75Z"
                  fill="white"/>

            <g opacity="0.4"/>
            <path opacity="0.4"
                  d="M20.5 15.5C20.3 15.5 20.11 15.42 19.97 15.28C19.83 15.14 19.75 14.95 19.75 14.75C19.75 14.65 19.77 14.56 19.81 14.46C19.85 14.37 19.9 14.29 19.97 14.22C20.18 14.01 20.51 13.94 20.79 14.06C20.88 14.1 20.96 14.15 21.03 14.22C21.1 14.29 21.15 14.37 21.19 14.46C21.23 14.56 21.25 14.65 21.25 14.75C21.25 14.95 21.17 15.14 21.03 15.28C20.96 15.35 20.88 15.4 20.79 15.44C20.69 15.48 20.6 15.5 20.5 15.5Z"
                  fill="white"/>

            <g opacity="0.4"/>
            <path opacity="0.4"
                  d="M3.5 15.5C3.3 15.5 3.10997 15.42 2.96997 15.28C2.89997 15.21 2.84 15.13 2.81 15.04C2.77 14.95 2.75 14.85 2.75 14.75C2.75 14.65 2.77 14.56 2.81 14.46C2.84 14.37 2.89997 14.29 2.96997 14.22C3.23997 13.94 3.75003 13.94 4.03003 14.22C4.10003 14.29 4.15 14.37 4.19 14.46C4.23 14.56 4.25 14.65 4.25 14.75C4.25 14.85 4.23 14.95 4.19 15.04C4.15 15.13 4.10003 15.21 4.03003 15.28C3.89003 15.42 3.7 15.5 3.5 15.5Z"
                  fill="white"/>

            <g opacity="0.2"/>
            <path opacity="0.2"
                  d="M20.5 18C20.43 18 20.37 17.99 20.31 17.96C20.25 17.94 20.19 17.9 20.15 17.85C20.05 17.76 20 17.63 20 17.5C20 17.37 20.05 17.24 20.15 17.15C20.33 16.96 20.67 16.96 20.85 17.15C20.95 17.24 21 17.37 21 17.5C21 17.63 20.95 17.76 20.85 17.85C20.76 17.95 20.63 18 20.5 18Z"
                  fill="white"/>

            <g opacity="0.2"/>
            <path opacity="0.2"
                  d="M3.5 18C3.37 18 3.24002 17.95 3.15002 17.85C3.05002 17.76 3 17.63 3 17.5C3 17.37 3.05002 17.24 3.15002 17.15C3.33002 16.96 3.66998 16.96 3.84998 17.15C3.94998 17.24 4 17.37 4 17.5C4 17.63 3.94998 17.76 3.84998 17.85C3.75998 17.95 3.63 18 3.5 18Z"
                  fill="white"/>

            <path d="M7.75 7.00002C7.65 7.00002 7.55002 6.99002 7.46002 6.97002C7.36002 6.95002 7.26999 6.92002 7.17999 6.88002C7.07999 6.85002 6.99998 6.80002 6.91998 6.75002C6.82998 6.69002 6.76 6.63002 6.69 6.56002C6.41 6.28002 6.25 5.89002 6.25 5.50002C6.25 5.11002 6.41 4.72002 6.69 4.44002C7.25 3.88002 8.25 3.88002 8.81 4.44002C9.09 4.72002 9.25 5.10002 9.25 5.50002C9.25 5.90002 9.09 6.28002 8.81 6.56002C8.74 6.63002 8.66002 6.69002 8.58002 6.75002C8.50002 6.80002 8.41001 6.85002 8.32001 6.88002C8.23001 6.92002 8.13998 6.95002 8.03998 6.97002C7.94998 6.99002 7.85 7.00002 7.75 7.00002Z"
                  fill="white"/>
            <path d="M16.25 7C16.15 7 16.05 6.99 15.96 6.97C15.86 6.95 15.77 6.92 15.68 6.88C15.59 6.85 15.5 6.8 15.42 6.75C15.34 6.69 15.26 6.63 15.19 6.56C15.12 6.49 15.06 6.41 15 6.33C14.95 6.25 14.9 6.16 14.86 6.07C14.83 5.98 14.8 5.89 14.78 5.79C14.76 5.7 14.75 5.6 14.75 5.5C14.75 5.11 14.91 4.72 15.19 4.44C15.26 4.37 15.34 4.31 15.42 4.25C15.5 4.2 15.59 4.15 15.68 4.12C15.77 4.08 15.86 4.05 15.96 4.03C16.15 3.99 16.35 3.99 16.54 4.03C16.64 4.05 16.73 4.08 16.82 4.12C16.91 4.15 17 4.2 17.08 4.25C17.16 4.31 17.24 4.37 17.31 4.44C17.59 4.72 17.75 5.11 17.75 5.5C17.75 5.6 17.74 5.7 17.72 5.79C17.7 5.89 17.67 5.98 17.64 6.07C17.6 6.16 17.55 6.25 17.5 6.33C17.44 6.41 17.38 6.49 17.31 6.56C17.24 6.63 17.16 6.69 17.08 6.75C17 6.8 16.91 6.85 16.82 6.88C16.73 6.92 16.64 6.95 16.54 6.97C16.45 6.99 16.35 7 16.25 7Z"
                  fill="white"/>
            <path d="M7.75 11.25C7.65 11.25 7.55002 11.24 7.46002 11.22C7.36002 11.2 7.26999 11.17 7.17999 11.14C7.08999 11.1 6.99998 11.05 6.91998 11C6.82998 10.94 6.76 10.88 6.69 10.81C6.41 10.53 6.25 10.14 6.25 9.75002C6.25 9.35002 6.41 8.97002 6.69 8.69002C7.25 8.13002 8.25 8.13002 8.81 8.69002C9.09 8.97002 9.25 9.35002 9.25 9.75002C9.25 10.15 9.09 10.53 8.81 10.81C8.53 11.09 8.14 11.25 7.75 11.25Z"
                  fill="white"/>
            <path d="M16.25 11.25C16.15 11.25 16.05 11.24 15.96 11.22C15.86 11.2 15.77 11.17 15.68 11.13C15.59 11.1 15.5 11.05 15.42 11C15.34 10.94 15.26 10.88 15.19 10.81C15.12 10.74 15.06 10.66 15 10.58C14.95 10.5 14.9 10.41 14.86 10.32C14.83 10.23 14.8 10.14 14.78 10.04C14.76 9.95 14.75 9.85 14.75 9.75C14.75 9.36 14.91 8.97 15.19 8.69C15.26 8.62 15.34 8.56 15.42 8.5C15.5 8.45 15.59 8.4 15.68 8.37C15.77 8.33 15.86 8.3 15.96 8.28C16.15 8.24 16.35 8.24 16.54 8.28C16.64 8.3 16.73 8.33 16.82 8.37C16.91 8.4 17 8.45 17.08 8.5C17.16 8.56 17.24 8.62 17.31 8.69C17.59 8.97 17.75 9.36 17.75 9.75C17.75 9.85 17.74 9.95 17.72 10.04C17.7 10.14 17.67 10.23 17.64 10.32C17.6 10.41 17.55 10.5 17.5 10.58C17.44 10.66 17.38 10.74 17.31 10.81C17.24 10.88 17.16 10.94 17.08 11C17 11.05 16.91 11.1 16.82 11.13C16.73 11.17 16.64 11.2 16.54 11.22C16.45 11.24 16.35 11.25 16.25 11.25Z"
                  fill="white"/>
            <g opacity="0.6"/>
            <path opacity="0.6"
                  d="M7.75 14.75C7.62 14.75 7.49 14.72 7.37 14.67C7.24 14.62 7.12998 14.55 7.03998 14.46C6.94998 14.36 6.88002 14.25 6.83002 14.13C6.78002 14.01 6.75 13.88 6.75 13.75C6.75 13.49 6.85998 13.23 7.03998 13.04C7.40998 12.67 8.09002 12.67 8.46002 13.04C8.64002 13.23 8.75 13.49 8.75 13.75C8.75 13.88 8.71998 14.01 8.66998 14.13C8.61998 14.25 8.55002 14.36 8.46002 14.46C8.27002 14.64 8.01 14.75 7.75 14.75Z"
                  fill="white"/>

            <g opacity="0.6"/>
            <path opacity="0.6"
                  d="M16.25 14.75C15.99 14.75 15.73 14.64 15.54 14.46C15.36 14.27 15.25 14.01 15.25 13.75C15.25 13.49 15.36 13.23 15.54 13.04C15.91 12.67 16.58 12.67 16.96 13.04C17.14 13.23 17.25 13.49 17.25 13.75C17.25 13.82 17.24 13.88 17.23 13.95C17.22 14.01 17.2 14.07 17.17 14.13C17.15 14.19 17.12 14.25 17.08 14.3C17.04 14.36 17 14.41 16.96 14.46C16.77 14.64 16.51 14.75 16.25 14.75Z"
                  fill="white"/>

            <g opacity="0.4"/>
            <path opacity="0.4"
                  d="M7.75 17.75C7.55 17.75 7.35997 17.67 7.21997 17.53C7.14997 17.46 7.1 17.38 7.06 17.29C7.02 17.2 7 17.1 7 17C7 16.9 7.02 16.81 7.06 16.71C7.1 16.62 7.14997 16.54 7.21997 16.47C7.28997 16.4 7.37002 16.35 7.46002 16.31C7.64002 16.23 7.84998 16.23 8.03998 16.31C8.12998 16.35 8.21003 16.4 8.28003 16.47C8.42003 16.61 8.5 16.8 8.5 17C8.5 17.1 8.48 17.2 8.44 17.29C8.4 17.38 8.35003 17.46 8.28003 17.53C8.14003 17.67 7.95 17.75 7.75 17.75Z"
                  fill="white"/>

            <g opacity="0.4"/>
            <path opacity="0.4"
                  d="M16.25 17.75C16.15 17.75 16.05 17.73 15.96 17.69C15.87 17.65 15.79 17.6 15.72 17.53C15.65 17.46 15.59 17.38 15.56 17.29C15.52 17.2 15.5 17.1 15.5 17C15.5 16.9 15.52 16.8 15.56 16.71C15.6 16.62 15.65 16.54 15.72 16.47C15.79 16.4 15.87 16.35 15.96 16.31C16.14 16.23 16.35 16.23 16.54 16.31C16.63 16.35 16.71 16.4 16.78 16.47C16.85 16.54 16.9 16.62 16.94 16.71C16.98 16.8 17 16.9 17 17C17 17.1 16.98 17.2 16.94 17.29C16.9 17.38 16.85 17.46 16.78 17.53C16.64 17.67 16.45 17.75 16.25 17.75Z"
                  fill="white"/>

            <g opacity="0.2"/>
            <path opacity="0.2"
                  d="M7.75 20C7.62 20 7.49002 19.95 7.40002 19.85C7.30002 19.76 7.25 19.63 7.25 19.5C7.25 19.37 7.30002 19.24 7.40002 19.15C7.58002 18.96 7.91998 18.96 8.09998 19.15C8.19998 19.24 8.25 19.37 8.25 19.5C8.25 19.63 8.19998 19.76 8.09998 19.85C8.00998 19.95 7.88 20 7.75 20Z"
                  fill="white"/>

            <g opacity="0.2"/>
            <path opacity="0.2"
                  d="M16.25 20C16.18 20 16.12 19.99 16.06 19.96C16 19.94 15.94 19.9 15.9 19.85C15.85 19.81 15.81 19.75 15.79 19.69C15.76 19.63 15.75 19.57 15.75 19.5C15.75 19.37 15.8 19.24 15.9 19.15C16.08 18.96 16.42 18.96 16.6 19.15C16.7 19.24 16.75 19.37 16.75 19.5C16.75 19.57 16.74 19.63 16.71 19.69C16.69 19.75 16.65 19.81 16.6 19.85C16.51 19.95 16.38 20 16.25 20Z"
                  fill="white"/>

        </symbol>
        <symbol viewBox="0 0 24 25" fill="none" id="reception">
            <path d="M10.068 4.09301C10.858 4.88301 10.858 6.16401 10.068 6.95401C9.278 7.74401 7.997 7.74401 7.207 6.95401C6.417 6.16401 6.417 4.88301 7.207 4.09301C7.998 3.30201 9.278 3.30201 10.068 4.09301"
                  stroke="white" stroke-width="1.5" stroke-linecap="round" stroke-linejoin="round"/>
            <path fill-rule="evenodd" clip-rule="evenodd"
                  d="M19 21.5H5C3.895 21.5 3 20.666 3 19.636V18.363C3 17.334 3.895 16.5 5 16.5H19C20.105 16.5 21 17.334 21 18.364V19.637C21 20.666 20.105 21.5 19 21.5Z"
                  stroke="white" stroke-width="1.5" stroke-linecap="round" stroke-linejoin="round"/>
            <path d="M8 9.90399H7.5C6.119 9.90399 5 11.023 5 12.404V13.5" stroke="white" stroke-width="1.5"
                  stroke-linecap="round" stroke-linejoin="round"/>
            <path d="M15.5 16.5V13.5" stroke="white" stroke-width="1.5" stroke-linecap="round" stroke-linejoin="round"/>
            <path fill-rule="evenodd" clip-rule="evenodd" d="M12 9.5H19V13.5H12V9.5Z" stroke="white" stroke-width="1.5"
                  stroke-linecap="round" stroke-linejoin="round"/>
        </symbol>
        <symbol viewBox="0 0 56 56" fill="none" id="rocket">
            <g id="Group"/>
            <path id="Path" fill-rule="evenodd" clip-rule="evenodd"
                  d="M38.6619 27.157L28.5085 35.2798C27.7599 35.8786 26.6807 35.8189 26.0028 35.141L20.8587 29.9969C20.1808 29.319 20.121 28.2398 20.7199 27.4912L28.8426 17.3378C32.5569 12.6949 38.1803 9.99219 44.1261 9.99219V9.99219C45.1652 9.99219 46.0075 10.8345 46.0075 11.8736V11.8736C46.0075 17.8194 43.3048 23.4427 38.6619 27.157Z"
                  stroke="currentColor" stroke-width="2.5" stroke-linecap="round" stroke-linejoin="round"/>
            <path id="Path_2"
                  d="M20.3435 29.0316L16.0814 27.6109C15.564 27.4384 15.1469 27.0499 14.9381 26.546C14.7294 26.0422 14.7496 25.4725 14.9936 24.9847L17.2662 20.4393C17.5849 19.802 18.2364 19.3994 18.949 19.3994H27.1932"
                  stroke="currentColor" stroke-width="2.5" stroke-linecap="round" stroke-linejoin="round"/>
            <path id="Path_3"
                  d="M26.9678 35.654L28.3889 39.9175C28.5614 40.4349 28.9499 40.852 29.4538 41.0607C29.9577 41.2695 30.5273 41.2492 31.0152 41.0053L35.5605 38.7327C36.1978 38.4139 36.6004 37.7625 36.6004 37.0499V28.8057"
                  stroke="currentColor" stroke-width="2.5" stroke-linecap="round" stroke-linejoin="round"/>
            <path id="Path_4" fill-rule="evenodd" clip-rule="evenodd"
                  d="M15.8615 45.1253L9.99219 46.0071L10.8739 40.1378C11.16 38.2337 12.6547 36.739 14.5587 36.453V36.453C15.9346 36.2463 17.3269 36.7049 18.3106 37.6887C19.2944 38.6725 19.7529 40.0648 19.5462 41.4406V41.4406C19.2602 43.3446 17.7655 44.8393 15.8615 45.1253V45.1253Z"
                  stroke="currentColor" stroke-width="2.5" stroke-linecap="round" stroke-linejoin="round"/>
            <path id="Path_5"
                  d="M45.2194 17.3525C47.2114 20.546 48.2645 24.2356 48.2582 27.9995C48.2549 35.4635 44.1494 42.3216 37.5722 45.8501C30.9949 49.3787 23.0106 49.0066 16.79 44.8815"
                  stroke="currentColor" stroke-width="2.5" stroke-linecap="round" stroke-linejoin="round"/>
            <path id="Path_6"
                  d="M11.1178 39.2089C5.84204 31.2798 6.80436 20.746 13.4295 13.9041C20.0547 7.06229 30.5521 5.76158 38.6468 10.7795"
                  stroke="currentColor" stroke-width="2.5" stroke-linecap="round" stroke-linejoin="round"/>

        </symbol>
        <symbol viewBox="0 0 24 25" fill="none" id="shield">
            <path d="M13.527 11.625V10.277C13.527 9.434 12.843 8.75 12 8.75V8.75C11.157 8.75 10.473 9.434 10.473 10.277V11.625"
                  stroke="white" stroke-width="1.5" stroke-linecap="round" stroke-linejoin="round"/>
            <path fill-rule="evenodd" clip-rule="evenodd"
                  d="M13.75 11.626H10.25C9.698 11.626 9.25 12.074 9.25 12.626V14.75C9.25 15.302 9.698 15.75 10.25 15.75H13.75C14.302 15.75 14.75 15.302 14.75 14.75V12.626C14.75 12.074 14.302 11.626 13.75 11.626Z"
                  stroke="white" stroke-width="1.5" stroke-linecap="round" stroke-linejoin="round"/>
            <path fill-rule="evenodd" clip-rule="evenodd"
                  d="M20 11.742C20 16.11 16.843 20.204 12.52 21.428C12.182 21.524 11.818 21.524 11.48 21.428C7.157 20.205 4 16.11 4 11.742V7.71399C4 6.90199 4.491 6.16999 5.243 5.86299L10.107 3.87299C11.321 3.37599 12.681 3.37599 13.894 3.87299L18.758 5.86299C19.509 6.16999 20 6.90199 20 7.71399V11.742Z"
                  stroke="white" stroke-width="1.5" stroke-linecap="round" stroke-linejoin="round"/>
        </symbol>
        <symbol viewBox="0 0 18 15" fill="none" id="telegram">
            <path d="M9.79495 11.4061L7.72995 13.4151C7.37195 13.7631 6.77295 13.6091 6.62795 13.1311L5.25195 8.60107"
                  stroke="white" stroke-width="1.5" stroke-linecap="round" stroke-linejoin="round"/>
            <path fill-rule="evenodd" clip-rule="evenodd"
                  d="M12.104 5.42699C12.104 5.42699 9.51495 7.76299 8.18695 8.96199C7.78995 9.31999 7.82295 9.94999 8.25295 10.267L13.631 14.24C14.16 14.631 14.916 14.344 15.053 13.7L17.694 1.25299C17.822 0.650989 17.231 0.147989 16.657 0.368989L1.14195 6.35299C0.684953 6.52899 0.706953 7.18199 1.17395 7.32799L5.25095 8.59999"
                  fill="white"/>
        </symbol>
        <symbol viewBox="0 0 18 16" fill="none" id="twitter">
            <path fill-rule="evenodd" clip-rule="evenodd"
                  d="M16.2 4.8501C16.2 11.1501 12.6 15.6501 6.3 15.6501C2.7 15.6501 1.257 13.7711 0 12.0501M0 12.0501C0.029 12.0451 2.7 11.1501 2.7 11.1501C-0.306 8.1111 -0.534 3.6101 1.8 0.350098C2.907 2.4091 4.974 4.3091 7.2 4.8501C7.286 2.2501 9.049 0.350098 11.7 0.350098C13.505 0.350098 14.567 1.0381 15.3 2.1501H18L16.2 4.8501"
                  fill="white"/>
        </symbol>
        <symbol viewBox="0 0 25 24" fill="none" id="ux">
            <g id="Group"/>
            <g id="Group_2"/>
            <path id="Path"
                  d="M11.1655 9.49902V12.7504C11.1655 13.7168 10.3812 14.5011 9.41479 14.5011V14.5011C8.44839 14.5011 7.66406 13.7168 7.66406 12.7504V9.49902"
                  stroke="white" stroke-width="1.5" stroke-linecap="round" stroke-linejoin="round"/>
            <path id="Path_2" d="M14.166 9.49902L17.6675 14.5011" stroke="white" stroke-width="1.5"
                  stroke-linecap="round" stroke-linejoin="round"/>
            <path id="Path_3" d="M17.6675 9.49902L14.166 14.5011" stroke="white" stroke-width="1.5"
                  stroke-linecap="round" stroke-linejoin="round"/>
            <path id="Path_4" fill-rule="evenodd" clip-rule="evenodd"
                  d="M16.6675 21.0036H8.66419C5.90204 21.0036 3.66211 18.7637 3.66211 16.0015V7.99818C3.66211 5.23603 5.90204 2.99609 8.66419 2.99609H16.6675C19.4297 2.99609 21.6696 5.23603 21.6696 7.99818V16.0015C21.6696 18.7637 19.4297 21.0036 16.6675 21.0036Z"
                  stroke="white" stroke-width="1.5" stroke-linecap="round" stroke-linejoin="round"/>


        </symbol>
    </defs>
</svg>
